<?xml version="1.0" standalone="no"?>
<!DOCTYPE svg PUBLIC "-//W3C//DTD SVG 20010904//EN"
 "http://www.w3.org/TR/2001/REC-SVG-20010904/DTD/svg10.dtd">
<svg version="1.0" xmlns="http://www.w3.org/2000/svg"
 width="512.000000pt" height="512.000000pt" viewBox="0 0 512.000000 512.000000"
 preserveAspectRatio="xMidYMid meet">

<g transform="translate(0.000000,512.000000) scale(0.100000,-0.100000)"
fill="#000000" stroke="none">
<path d="M2385 4676 c-307 -70 -544 -287 -641 -586 -25 -77 -28 -102 -32 -272
l-4 -188 -327 0 c-382 0 -404 -4 -469 -74 -29 -32 -43 -58 -52 -97 -8 -40 -10
-372 -8 -1279 l3 -1225 28 -82 c54 -161 169 -295 317 -373 142 -73 73 -70
1357 -70 789 0 1169 3 1205 11 81 16 225 91 290 149 110 98 183 236 208 390
15 97 14 2426 -2 2488 -16 64 -86 134 -150 150 -31 8 -156 12 -372 12 l-326 0
0 158 c0 175 -12 245 -59 367 -43 112 -101 196 -201 295 -100 99 -191 154
-330 201 -86 29 -109 33 -235 35 -94 3 -160 -1 -200 -10z m321 -437 c111 -42
190 -115 239 -221 33 -72 45 -146 45 -280 l0 -108 -430 0 -430 0 0 108 c0 59
4 133 10 166 36 221 235 379 455 359 33 -3 83 -14 111 -24z m-996 -1169 c0
-95 4 -141 15 -168 64 -152 273 -172 370 -34 30 43 30 46 33 188 l3 144 429 0
429 0 3 -144 c3 -142 3 -145 33 -188 87 -123 263 -123 350 0 30 43 30 46 33
188 l3 144 215 0 214 0 0 -1089 0 -1089 -28 -53 c-20 -39 -41 -62 -77 -84
l-48 -30 -1127 0 -1127 0 -48 30 c-36 22 -57 45 -77 84 l-28 53 0 1089 0 1089
215 0 215 0 0 -130z"/>
</g>
</svg>
